<?xml version="1.0" standalone="no"?>
<!DOCTYPE svg PUBLIC "-//W3C//DTD SVG 20010904//EN"
 "http://www.w3.org/TR/2001/REC-SVG-20010904/DTD/svg10.dtd">
<svg version="1.0" xmlns="http://www.w3.org/2000/svg"
 width="225.000000pt" height="225.000000pt" viewBox="0 0 225.000000 225.000000"
 preserveAspectRatio="xMidYMid meet">

<g transform="translate(0.000000,225.000000) scale(0.100000,-0.100000)"
fill="#000000" stroke="none">
<path d="M970 2153 c-14 -2 -67 -15 -118 -28 -464 -122 -784 -564 -759 -1049
24 -456 331 -836 772 -956 102 -28 313 -38 422 -20 570 92 957 636 858 1205
-39 225 -128 390 -299 560 -150 148 -316 238 -518 279 -72 15 -291 20 -358 9z
m350 -139 c354 -81 623 -357 695 -713 21 -103 16 -301 -10 -401 -26 -97 -99
-246 -163 -329 -283 -370 -801 -463 -1199 -215 -154 95 -294 264 -362 435 -82
210 -82 461 0 669 165 413 612 652 1039 554z"/>
<path d="M590 1450 l0 -80 70 0 70 0 0 80 0 80 -70 0 -70 0 0 -80z"/>
<path d="M880 1410 l0 -40 405 0 405 0 0 40 0 40 -405 0 -405 0 0 -40z"/>
<path d="M590 1130 l0 -80 70 0 70 0 0 80 0 80 -70 0 -70 0 0 -80z"/>
<path d="M880 1090 l0 -40 405 0 405 0 0 40 0 40 -405 0 -405 0 0 -40z"/>
<path d="M590 815 l0 -75 70 0 70 0 0 75 0 75 -70 0 -70 0 0 -75z"/>
<path d="M880 775 l0 -35 405 0 405 0 0 35 0 35 -405 0 -405 0 0 -35z"/>
</g>
</svg>
