<?xml version="1.0" standalone="no"?>
<!DOCTYPE svg PUBLIC "-//W3C//DTD SVG 20010904//EN"
 "http://www.w3.org/TR/2001/REC-SVG-20010904/DTD/svg10.dtd">
<svg version="1.0" xmlns="http://www.w3.org/2000/svg"
 width="300.000000pt" height="300.000000pt" viewBox="0 0 300.000000 300.000000"
 preserveAspectRatio="xMidYMid meet">

<g transform="translate(0.000000,300.000000) scale(0.100000,-0.100000)"
fill="#000000" stroke="none">
<path d="M1355 2196 c-61 -26 -77 -60 -139 -288 l-59 -216 -61 -7 c-146 -15
-166 -18 -183 -30 -14 -11 -15 -15 -4 -28 77 -93 521 -154 826 -113 200 26
394 100 358 136 -14 15 -82 29 -140 30 -24 0 -43 3 -43 7 0 3 18 72 41 151 23
83 36 149 31 154 -14 14 -555 218 -577 218 -11 -1 -34 -7 -50 -14z m317 -113
c142 -54 258 -100 258 -103 0 -3 -20 -17 -44 -32 l-43 -26 -257 102 c-142 55
-258 105 -259 110 -2 9 60 46 78 46 5 0 126 -44 267 -97z m139 -189 c6 -3 -49
-216 -68 -264 -4 -10 -12 -1 -25 28 -11 24 -25 42 -31 39 -60 -22 -58 -28 -26
90 16 59 32 118 35 130 l6 22 51 -20 c28 -11 54 -22 58 -25z"/>
<path d="M934 1317 c-3 -8 -4 -54 -2 -103 3 -81 5 -89 23 -89 17 0 21 8 25 58
l5 59 18 -31 c10 -17 27 -31 37 -31 10 0 27 14 37 31 l18 31 5 -59 c4 -50 8
-58 25 -58 19 0 20 7 20 100 0 93 -1 100 -20 100 -11 0 -32 -17 -50 -42 -16
-23 -32 -42 -35 -42 -3 0 -20 20 -38 44 -33 45 -58 57 -68 32z"/>
<path d="M1175 1317 c-3 -7 -5 -54 -3 -103 3 -81 5 -89 23 -89 16 0 21 8 23
37 l3 36 38 -41 c22 -23 43 -37 49 -33 19 12 14 33 -18 69 l-29 34 29 28 c31
29 38 59 19 71 -6 3 -28 -11 -49 -31 l-39 -38 -3 34 c-3 35 -33 54 -43 26z"/>
<path d="M1355 1318 c-3 -8 -5 -55 -3 -104 l3 -89 57 0 c41 0 62 6 77 19 43
39 44 118 2 160 -26 25 -128 36 -136 14z m107 -55 c35 -32 10 -93 -39 -93 -21
0 -23 4 -23 55 0 50 2 55 22 55 12 0 30 -7 40 -17z"/>
<path d="M1591 1317 c-97 -56 -44 -213 65 -193 103 20 98 187 -6 201 -20 3
-45 -1 -59 -8z m83 -59 c20 -29 20 -47 -1 -70 -33 -37 -85 -15 -85 37 0 54 57
75 86 33z"/>
<path d="M1805 1318 c-71 -39 -74 -141 -5 -181 37 -22 72 -21 100 1 32 26 18
43 -28 36 -47 -7 -74 12 -74 51 0 39 27 58 73 50 47 -8 61 11 29 37 -25 20
-65 23 -95 6z"/>
<path d="M1960 1310 c-36 -36 -20 -82 35 -100 19 -6 35 -18 35 -26 0 -17 -31
-19 -47 -3 -15 15 -43 4 -43 -15 0 -8 10 -22 22 -30 51 -36 118 -5 118 53 0
32 -11 44 -54 58 -46 14 -47 37 -2 29 29 -6 38 -4 43 10 15 40 -71 60 -107 24z"/>
</g>
</svg>
